<svg xmlns="http://www.w3.org/2000/svg" xmlns:xlink="http://www.w3.org/1999/xlink" width="175" zoomAndPan="magnify" viewBox="0 0 131.25 30.000001" height="40" preserveAspectRatio="xMidYMid meet" version="1.0"><defs><g/><clipPath id="4394430db4"><path d="M 1.753906 0 L 128.769531 0 L 128.769531 29.03125 L 1.753906 29.03125 Z M 1.753906 0 " clip-rule="nonzero"/></clipPath><clipPath id="afcb8b7177"><path d="M 1.753906 0 L 128.769531 0 L 128.769531 29.03125 L 1.753906 29.03125 Z M 1.753906 0 " clip-rule="nonzero"/></clipPath></defs><g clip-path="url(#4394430db4)"><path stroke-linecap="butt" transform="matrix(0.227257, 0, 0, 0.227257, 7.640696, -1.278229)" fill="none" stroke-linejoin="miter" d="M 68.840396 73.055837 C 68.513811 78.899992 67.654376 85.878601 66.262092 93.991663 L 16.569584 94.094796 L 16.672717 93.991663 L 12.68494 87.20213 L 50.276609 35.928263 L 28.051631 37.320547 L 24.957666 49.919858 L 16.569584 49.919858 C 15.847659 45.983648 15.486697 41.205191 15.486697 35.550112 L 15.778905 28.365239 L 64.852619 28.365239 L 68.152848 35.034451 L 31.334671 85.225431 L 55.278518 84.623826 L 59.885088 71.766685 Z M 126.113117 86.222375 C 128.760175 86.961489 131.149403 87.924055 133.29799 89.110075 L 132.885461 93.991663 L 106.449253 93.991663 L 106.139857 90.62268 L 111.640238 88.113131 L 111.640238 65.166227 C 111.640238 58.651713 109.474463 55.403051 105.142913 55.403051 C 102.94276 55.403051 99.900362 56.520316 95.98134 58.789223 L 95.98134 86.428639 C 98.301813 87.150564 100.330079 88.044376 102.066137 89.110075 L 101.653608 93.991663 L 74.426721 93.991663 L 74.134513 90.62268 C 75.990892 89.539792 78.448875 88.474093 81.52565 87.425583 L 81.52565 29.65439 L 74.048569 28.846522 L 73.326644 24.068066 C 79.050479 21.885102 84.963389 20.716271 91.082563 20.561573 L 95.98134 24.979066 L 95.98134 54.010767 C 102.564609 49.129178 108.116556 46.138346 112.637182 45.021081 C 115.696769 45.210156 118.550092 46.241478 121.214339 48.115045 C 123.878587 49.988613 125.40838 52.377841 125.80372 55.299918 L 126.113117 60.972187 Z M 187.837708 89.196018 L 175.685303 95.6074 C 174.086755 95.521457 172.402263 94.816721 170.666205 93.458814 C 168.947336 92.100907 167.58943 90.416416 166.609674 88.422527 L 155.712044 95.298004 L 152.618079 95.48708 C 148.441227 95.48708 144.969111 94.266682 142.253298 91.8087 C 139.537485 89.333528 138.179578 86.377073 138.179578 82.922146 C 138.179578 78.126501 140.775071 74.344989 145.948867 71.543232 L 164.993937 71.061949 L 164.993937 62.175395 C 164.993937 56.864089 163.429766 53.477917 160.318613 52.016878 C 157.241837 52.205954 154.749477 52.635671 152.841532 53.30603 L 151.03672 64.066151 L 142.665827 64.358359 C 141.204788 60.714356 140.465674 56.692202 140.465674 52.309086 L 140.568806 50.298009 C 144.212809 48.71665 148.595925 47.307177 153.718155 46.069591 C 158.840386 44.832005 162.742219 44.213212 165.406466 44.213212 C 167.864449 44.213212 170.270866 44.883571 172.625716 46.207101 C 174.980567 47.547818 176.905701 49.266688 178.366739 51.398085 C 179.088664 52.670049 179.501193 55.196786 179.552759 58.978298 L 179.552759 82.922146 C 179.552759 84.520694 180.395005 85.328563 182.062308 85.328563 L 186.943897 84.726959 Z M 154.7151 86.617715 C 157.379347 86.54896 160.799896 85.723903 164.993937 84.108166 L 164.993937 76.95767 L 162.518766 76.837349 C 155.918308 76.837349 152.618079 78.624973 152.618079 82.234598 C 152.618079 84.022222 153.322816 85.483261 154.7151 86.617715 Z M 242.618069 86.222375 C 245.88392 87.219319 248.238771 88.181886 249.69981 89.110075 L 249.287281 93.991663 L 222.954206 93.991663 L 222.661998 90.62268 L 228.14519 88.113131 L 228.14519 65.166227 C 228.14519 58.651713 225.996604 55.403051 221.665054 55.403051 C 219.602411 55.403051 216.474069 56.554693 212.297217 58.875166 L 212.297217 86.428639 C 214.61769 87.150564 216.645956 88.044376 218.382014 89.110075 L 217.969485 93.991663 L 190.828541 93.991663 L 190.536333 90.62268 C 192.323957 89.608547 194.764751 88.542848 197.824338 87.425583 L 197.824338 53.890446 L 190.347257 53.013822 L 189.642521 48.218177 C 195.349167 46.018025 201.279265 44.866383 207.39844 44.728873 L 212.297217 49.507329 L 212.297217 54.113899 C 219.000807 49.163555 224.621509 46.138346 229.142135 45.021081 C 232.201722 45.210156 235.055045 46.241478 237.719292 48.115045 C 240.383539 49.988613 241.913333 52.377841 242.325861 55.299918 L 242.618069 60.972187 Z M 306.336549 51.501218 L 304.153585 51.398085 C 301.489338 51.398085 299.065732 51.827803 296.86558 52.687237 C 298.739147 55.28273 299.667337 58.187619 299.667337 61.384715 C 299.667337 66.438191 297.484373 70.563477 293.118445 73.760573 C 288.769706 76.940481 283.372457 78.53903 276.926697 78.53903 L 273.540525 78.332765 L 268.34954 82.819014 C 273.592091 82.887769 279.401869 83.506561 285.778874 84.675393 C 292.190256 85.844224 297.810958 87.219319 302.658169 88.817867 C 303.328528 90.743001 303.672302 92.702512 303.672302 94.713588 C 303.672302 101.021838 300.664281 106.505031 294.682616 111.145978 C 288.700951 115.804113 281.687965 118.141775 273.626469 118.141775 C 268.040144 118.141775 263.22731 116.887001 259.170779 114.377452 C 255.114248 111.90228 253.017227 108.172334 252.879718 103.187613 L 263.846103 93.286927 L 257.555042 92.908776 L 255.578342 86.514583 C 259.050458 82.715882 262.763216 79.535974 266.733803 76.95767 C 262.952291 75.616952 259.961459 73.571498 257.761306 70.821307 C 255.561154 68.053928 254.461077 64.942774 254.461077 61.487847 C 254.461077 56.503127 256.644041 52.343463 260.99278 49.008857 C 265.358708 45.69144 270.773146 44.024137 277.218905 44.024137 C 282.598966 44.024137 287.239913 45.175779 291.090179 47.513441 C 293.359087 42.116192 297.604694 39.159737 303.861377 38.644076 Z M 281.61921 71.354156 C 284.145948 69.497778 285.400722 66.472568 285.400722 62.261339 C 285.400722 59.270506 284.489722 56.657825 282.702098 54.406106 C 280.914474 52.137199 278.611189 51.019934 275.826621 51.019934 C 274.434337 51.019934 272.973298 51.346519 271.443505 52.016878 C 269.569937 53.856068 268.641748 56.881278 268.641748 61.075319 C 268.641748 64.272415 269.432428 66.902285 271.030976 68.964928 C 272.629525 71.027571 274.829677 72.058893 277.631434 72.058893 C 278.679944 72.058893 280.020662 71.818251 281.61921 71.354156 Z M 275.637546 106.951937 C 279.212793 106.951937 282.736475 106.298767 286.208591 104.958049 C 289.663518 103.651708 292.190256 101.778141 293.771615 99.388913 C 287.807139 96.862175 279.814398 95.040174 269.827768 93.90572 C 266.25252 96.638722 264.447707 99.062327 264.447707 101.176537 C 264.447707 102.981349 265.496218 104.408011 267.593238 105.422143 C 269.690258 106.453465 272.371694 106.951937 275.637546 106.951937 Z M 348.345711 70.25408 L 322.906448 69.961872 C 323.181467 74.877838 324.694072 78.710917 327.495828 81.42673 C 330.280396 84.159732 333.838456 85.517638 338.152817 85.517638 C 341.762443 85.517638 346.025238 84.31443 350.941204 81.925202 L 353.038224 87.20213 L 337.379326 95.298004 L 334.18223 95.48708 C 326.859847 95.48708 320.843805 93.183795 316.116915 88.577226 C 311.390024 83.936279 309.035174 78.074935 309.035174 70.958817 C 309.035174 63.498924 311.424402 57.242241 316.220047 52.154388 C 320.998503 47.066535 326.825469 44.50542 333.683757 44.50542 C 339.665422 44.50542 344.581388 46.361799 348.397278 50.057367 C 352.230356 53.752936 354.138301 58.548581 354.138301 64.47868 Z M 330.194453 52.102822 C 326.739526 54.113899 324.504996 57.757901 323.490863 63.069207 L 340.765498 62.175395 C 340.301404 59.304884 339.081007 56.915655 337.121496 55.007711 C 335.161985 53.082577 332.8587 52.102822 330.194453 52.102822 Z M 382.155868 84.331619 C 384.012247 84.331619 386.814003 83.884713 390.526761 83.008089 L 391.626837 87.906867 L 376.277335 95.6074 C 373.406824 95.74491 370.673822 94.765155 368.07833 92.702512 C 365.500026 90.639869 364.176497 88.319395 364.107742 85.723903 L 364.107742 56.881278 L 357.111944 56.98441 L 356.733793 51.793425 C 359.243342 50.005801 361.941967 48.407253 364.812478 47.014969 L 369.78001 34.037507 L 376.569543 34.037507 L 378.288412 47.014969 L 391.936234 47.014969 L 392.142498 51.312142 L 387.243721 57.070354 L 378.58062 57.070354 L 378.58062 79.725049 C 378.58062 81.461107 378.838451 82.664316 379.354111 83.334675 C 379.886961 84.005034 380.81515 84.331619 382.155868 84.331619 Z M 410.689096 56.399995 C 410.689096 57.792279 411.204757 59.029865 412.21889 60.095563 C 413.2674 61.144074 416.395742 62.966075 421.638293 65.52719 C 426.915221 68.071116 430.47328 70.529099 432.329659 72.866761 C 434.203226 75.187235 435.131416 77.834293 435.131416 80.825126 C 435.131416 85.294185 433.360981 88.938188 429.785733 91.757133 C 426.227674 94.576079 421.552349 96.00274 415.776949 96.00274 C 409.262435 96.00274 402.679166 94.232305 396.027142 90.708623 L 401.011863 79.037502 C 407.131037 83.558128 413.318966 86.652092 419.57565 88.319395 C 420.967934 87.116187 421.67267 85.620771 421.67267 83.815958 C 421.67267 82.286164 421.071066 80.962635 419.867858 79.84537 C 418.664649 78.710917 415.536307 76.923293 410.482832 74.46531 C 405.446545 72.007327 402.025996 69.652476 400.25556 67.435135 C 398.485125 65.183416 397.608502 62.605112 397.608502 59.683035 C 397.608502 55.14522 399.568013 51.484029 403.504223 48.699461 C 407.423245 45.897704 412.459531 44.50542 418.578706 44.50542 C 424.285351 44.50542 429.149751 45.571119 433.137528 47.702517 L 433.24066 50.504273 C 433.24066 54.371729 432.673433 57.964166 431.538979 61.298772 L 423.855634 61.298772 L 421.449217 52.498162 C 418.939668 51.827803 416.619195 51.569972 414.487797 51.690293 C 411.943871 52.566916 410.689096 54.131087 410.689096 56.399995 Z M 498.970217 89.196018 L 486.697491 95.6074 C 485.030188 95.521457 483.276941 94.679211 481.403374 93.046285 C 479.546995 91.430548 478.189088 89.522604 477.312465 87.322451 C 471.399555 91.447737 465.727287 94.215116 460.261283 95.6074 C 458.19864 95.469891 456.015676 94.765155 453.712392 93.51038 C 451.426296 92.238417 449.587106 90.588302 448.177633 88.525659 C 447.266632 87.116187 446.76816 84.022222 446.699405 79.243766 L 446.699405 53.890446 L 439.222324 53.013822 L 438.517588 48.218177 C 444.224234 46.018025 450.154332 44.866383 456.273507 44.728873 L 461.172284 49.111989 L 461.172284 76.442009 C 461.172284 82.21741 463.286493 85.10511 467.549288 85.10511 C 469.938516 85.10511 472.791839 84.280053 476.126445 82.629938 L 476.126445 53.787314 L 469.835384 52.790369 L 469.130648 48.011913 C 474.063802 46.08678 479.581373 44.986703 485.683358 44.728873 L 490.582135 49.111989 L 490.582135 82.629938 C 490.582135 84.434751 491.424381 85.328563 493.091684 85.328563 L 498.059216 84.726959 Z M 498.970217 89.196018 " stroke="#ff570a" stroke-width="26.187183" stroke-opacity="1" stroke-miterlimit="4"/></g><g fill="#ffffff" fill-opacity="1"><g transform="translate(9.774781, 20.083926)"><g><path d="M 13.515625 -4.765625 C 13.441406 -3.429688 13.242188 -1.84375 12.921875 0 L 1.625 0.015625 L 1.65625 0 L 0.75 -1.546875 L 9.296875 -13.1875 L 4.234375 -12.875 L 3.53125 -10.015625 L 1.625 -10.015625 C 1.46875 -10.910156 1.390625 -12 1.390625 -13.28125 L 1.453125 -14.921875 L 12.609375 -14.921875 L 13.359375 -13.40625 L 4.984375 -2 L 10.421875 -2.125 L 11.46875 -5.0625 Z M 13.515625 -4.765625 "/></g></g></g><g fill="#ffffff" fill-opacity="1"><g transform="translate(24.101521, 20.083926)"><g><path d="M 12.203125 -1.765625 C 12.804688 -1.597656 13.347656 -1.378906 13.828125 -1.109375 L 13.734375 0 L 7.734375 0 L 7.65625 -0.765625 L 8.90625 -1.34375 L 8.90625 -6.546875 C 8.90625 -8.035156 8.414062 -8.78125 7.4375 -8.78125 C 6.9375 -8.78125 6.238281 -8.519531 5.34375 -8 L 5.34375 -1.71875 C 5.875 -1.550781 6.335938 -1.347656 6.734375 -1.109375 L 6.640625 0 L 0.453125 0 L 0.390625 -0.765625 C 0.804688 -1.015625 1.363281 -1.257812 2.0625 -1.5 L 2.0625 -14.625 L 0.359375 -14.8125 L 0.203125 -15.890625 C 1.503906 -16.390625 2.847656 -16.65625 4.234375 -16.6875 L 5.34375 -15.6875 L 5.34375 -9.09375 C 6.84375 -10.195312 8.109375 -10.875 9.140625 -11.125 C 9.835938 -11.082031 10.488281 -10.847656 11.09375 -10.421875 C 11.695312 -10.003906 12.039062 -9.460938 12.125 -8.796875 L 12.203125 -7.5 Z M 12.203125 -1.765625 "/></g></g></g><g fill="#ffffff" fill-opacity="1"><g transform="translate(38.201571, 20.083926)"><g><path d="M 12.125 -1.09375 L 9.359375 0.359375 C 8.992188 0.347656 8.613281 0.1875 8.21875 -0.125 C 7.832031 -0.4375 7.523438 -0.816406 7.296875 -1.265625 L 4.828125 0.296875 L 4.125 0.34375 C 3.175781 0.34375 2.390625 0.0625 1.765625 -0.5 C 1.148438 -1.0625 0.84375 -1.734375 0.84375 -2.515625 C 0.84375 -3.609375 1.429688 -4.46875 2.609375 -5.09375 L 6.9375 -5.21875 L 6.9375 -7.234375 C 6.9375 -8.441406 6.582031 -9.210938 5.875 -9.546875 C 5.175781 -9.503906 4.609375 -9.40625 4.171875 -9.25 L 3.765625 -6.796875 L 1.859375 -6.734375 C 1.523438 -7.566406 1.359375 -8.484375 1.359375 -9.484375 L 1.390625 -9.9375 C 2.210938 -10.289062 3.207031 -10.609375 4.375 -10.890625 C 5.539062 -11.171875 6.425781 -11.3125 7.03125 -11.3125 C 7.582031 -11.3125 8.128906 -11.160156 8.671875 -10.859375 C 9.210938 -10.554688 9.644531 -10.164062 9.96875 -9.6875 C 10.132812 -9.394531 10.226562 -8.816406 10.25 -7.953125 L 10.25 -2.515625 C 10.25 -2.148438 10.4375 -1.96875 10.8125 -1.96875 L 11.921875 -2.109375 Z M 4.609375 -1.671875 C 5.210938 -1.691406 5.988281 -1.882812 6.9375 -2.25 L 6.9375 -3.875 L 6.375 -3.90625 C 4.875 -3.90625 4.125 -3.492188 4.125 -2.671875 C 4.125 -2.265625 4.285156 -1.929688 4.609375 -1.671875 Z M 4.609375 -1.671875 "/></g></g></g><g fill="#ffffff" fill-opacity="1"><g transform="translate(50.533449, 20.083926)"><g><path d="M 12.25 -1.765625 C 12.988281 -1.535156 13.523438 -1.316406 13.859375 -1.109375 L 13.765625 0 L 7.78125 0 L 7.703125 -0.765625 L 8.953125 -1.34375 L 8.953125 -6.546875 C 8.953125 -8.035156 8.460938 -8.78125 7.484375 -8.78125 C 7.015625 -8.78125 6.300781 -8.515625 5.34375 -7.984375 L 5.34375 -1.71875 C 5.875 -1.550781 6.335938 -1.347656 6.734375 -1.109375 L 6.640625 0 L 0.46875 0 L 0.40625 -0.765625 C 0.8125 -0.992188 1.363281 -1.238281 2.0625 -1.5 L 2.0625 -9.109375 L 0.359375 -9.3125 L 0.203125 -10.40625 C 1.503906 -10.90625 2.847656 -11.171875 4.234375 -11.203125 L 5.34375 -10.109375 L 5.34375 -9.0625 C 6.875 -10.1875 8.15625 -10.875 9.1875 -11.125 C 9.875 -11.082031 10.519531 -10.847656 11.125 -10.421875 C 11.726562 -10.003906 12.078125 -9.460938 12.171875 -8.796875 L 12.25 -7.5 Z M 12.25 -1.765625 "/></g></g></g><g fill="#ffffff" fill-opacity="1"><g transform="translate(64.656168, 20.083926)"><g><path d="M 12.609375 -9.65625 L 12.109375 -9.6875 C 11.503906 -9.6875 10.953125 -9.585938 10.453125 -9.390625 C 10.878906 -8.796875 11.09375 -8.132812 11.09375 -7.40625 C 11.09375 -6.257812 10.59375 -5.320312 9.59375 -4.59375 C 8.601562 -3.875 7.378906 -3.515625 5.921875 -3.515625 L 5.140625 -3.5625 L 3.96875 -2.546875 C 5.164062 -2.523438 6.488281 -2.378906 7.9375 -2.109375 C 9.382812 -1.847656 10.660156 -1.535156 11.765625 -1.171875 C 11.921875 -0.734375 12 -0.289062 12 0.15625 C 12 1.59375 11.316406 2.835938 9.953125 3.890625 C 8.585938 4.953125 6.992188 5.484375 5.171875 5.484375 C 3.898438 5.484375 2.800781 5.195312 1.875 4.625 C 0.957031 4.0625 0.484375 3.210938 0.453125 2.078125 L 2.953125 -0.15625 L 1.515625 -0.25 L 1.0625 -1.703125 C 1.851562 -2.566406 2.703125 -3.289062 3.609375 -3.875 C 2.742188 -4.175781 2.0625 -4.640625 1.5625 -5.265625 C 1.0625 -5.898438 0.8125 -6.609375 0.8125 -7.390625 C 0.8125 -8.523438 1.304688 -9.46875 2.296875 -10.21875 C 3.285156 -10.976562 4.515625 -11.359375 5.984375 -11.359375 C 7.210938 -11.359375 8.265625 -11.09375 9.140625 -10.5625 C 9.648438 -11.789062 10.613281 -12.460938 12.03125 -12.578125 Z M 6.984375 -5.140625 C 7.554688 -5.566406 7.84375 -6.253906 7.84375 -7.203125 C 7.84375 -7.890625 7.640625 -8.488281 7.234375 -9 C 6.828125 -9.507812 6.304688 -9.765625 5.671875 -9.765625 C 5.347656 -9.765625 5.015625 -9.691406 4.671875 -9.546875 C 4.242188 -9.117188 4.03125 -8.429688 4.03125 -7.484375 C 4.03125 -6.753906 4.210938 -6.15625 4.578125 -5.6875 C 4.941406 -5.21875 5.441406 -4.984375 6.078125 -4.984375 C 6.316406 -4.984375 6.617188 -5.035156 6.984375 -5.140625 Z M 5.625 2.953125 C 6.4375 2.953125 7.234375 2.800781 8.015625 2.5 C 8.804688 2.195312 9.382812 1.769531 9.75 1.21875 C 8.382812 0.644531 6.570312 0.234375 4.3125 -0.015625 C 3.488281 0.597656 3.078125 1.144531 3.078125 1.625 C 3.078125 2.039062 3.316406 2.363281 3.796875 2.59375 C 4.273438 2.832031 4.882812 2.953125 5.625 2.953125 Z M 5.625 2.953125 "/></g></g></g><g fill="#ffffff" fill-opacity="1"><g transform="translate(77.554769, 20.083926)"><g><path d="M 9.25 -5.390625 L 3.46875 -5.46875 C 3.53125 -4.34375 3.878906 -3.46875 4.515625 -2.84375 C 5.148438 -2.226562 5.957031 -1.921875 6.9375 -1.921875 C 7.75 -1.921875 8.71875 -2.195312 9.84375 -2.75 L 10.3125 -1.546875 L 6.75 0.296875 L 6.03125 0.34375 C 4.363281 0.34375 2.992188 -0.179688 1.921875 -1.234375 C 0.847656 -2.285156 0.3125 -3.617188 0.3125 -5.234375 C 0.3125 -6.929688 0.851562 -8.359375 1.9375 -9.515625 C 3.03125 -10.671875 4.359375 -11.25 5.921875 -11.25 C 7.273438 -11.25 8.382812 -10.828125 9.25 -9.984375 C 10.125 -9.148438 10.5625 -8.054688 10.5625 -6.703125 Z M 5.125 -9.515625 C 4.332031 -9.066406 3.828125 -8.238281 3.609375 -7.03125 L 7.53125 -7.234375 C 7.425781 -7.878906 7.148438 -8.421875 6.703125 -8.859375 C 6.253906 -9.296875 5.726562 -9.515625 5.125 -9.515625 Z M 5.125 -9.515625 "/></g></g></g><g fill="#ffffff" fill-opacity="1"><g transform="translate(88.526514, 20.083926)"><g><path d="M 5.96875 -2.203125 C 6.382812 -2.203125 7.015625 -2.300781 7.859375 -2.5 L 8.109375 -1.390625 L 4.625 0.359375 C 3.976562 0.390625 3.359375 0.171875 2.765625 -0.296875 C 2.171875 -0.765625 1.867188 -1.289062 1.859375 -1.875 L 1.859375 -8.4375 L 0.265625 -8.40625 L 0.1875 -9.59375 C 0.757812 -10 1.367188 -10.359375 2.015625 -10.671875 L 3.15625 -13.625 L 4.6875 -13.625 L 5.078125 -10.671875 L 8.1875 -10.671875 L 8.234375 -9.703125 L 7.125 -8.390625 L 5.140625 -8.390625 L 5.140625 -3.234375 C 5.140625 -2.847656 5.203125 -2.578125 5.328125 -2.421875 C 5.453125 -2.273438 5.664062 -2.203125 5.96875 -2.203125 Z M 5.96875 -2.203125 "/></g></g></g><g fill="#ffffff" fill-opacity="1"><g transform="translate(97.186032, 20.083926)"><g><path d="M 3.78125 -8.546875 C 3.78125 -8.234375 3.894531 -7.953125 4.125 -7.703125 C 4.363281 -7.460938 5.082031 -7.050781 6.28125 -6.46875 C 7.476562 -5.882812 8.285156 -5.328125 8.703125 -4.796875 C 9.128906 -4.273438 9.34375 -3.675781 9.34375 -3 C 9.34375 -1.976562 8.9375 -1.144531 8.125 -0.5 C 7.320312 0.132812 6.257812 0.453125 4.9375 0.453125 C 3.457031 0.453125 1.960938 0.0507812 0.453125 -0.75 L 1.59375 -3.40625 C 2.976562 -2.375 4.378906 -1.671875 5.796875 -1.296875 C 6.117188 -1.566406 6.28125 -1.90625 6.28125 -2.3125 C 6.28125 -2.65625 6.144531 -2.957031 5.875 -3.21875 C 5.601562 -3.476562 4.890625 -3.882812 3.734375 -4.4375 C 2.585938 -5 1.8125 -5.53125 1.40625 -6.03125 C 1.007812 -6.539062 0.8125 -7.128906 0.8125 -7.796875 C 0.8125 -8.828125 1.253906 -9.660156 2.140625 -10.296875 C 3.035156 -10.929688 4.179688 -11.25 5.578125 -11.25 C 6.878906 -11.25 7.984375 -11.003906 8.890625 -10.515625 L 8.90625 -9.890625 C 8.90625 -9.003906 8.78125 -8.1875 8.53125 -7.4375 L 6.78125 -7.4375 L 6.234375 -9.4375 C 5.660156 -9.582031 5.128906 -9.640625 4.640625 -9.609375 C 4.066406 -9.410156 3.78125 -9.054688 3.78125 -8.546875 Z M 3.78125 -8.546875 "/></g></g></g><g fill="#ffffff" fill-opacity="1"><g transform="translate(107.29636, 20.083926)"><g><path d="M 13.734375 -1.09375 L 10.953125 0.359375 C 10.578125 0.347656 10.175781 0.160156 9.75 -0.203125 C 9.320312 -0.578125 9.007812 -1.015625 8.8125 -1.515625 C 7.46875 -0.578125 6.175781 0.046875 4.9375 0.359375 C 4.46875 0.328125 3.972656 0.171875 3.453125 -0.109375 C 2.929688 -0.398438 2.515625 -0.78125 2.203125 -1.25 C 1.984375 -1.5625 1.867188 -2.265625 1.859375 -3.359375 L 1.859375 -9.109375 L 0.15625 -9.3125 L 0 -10.40625 C 1.300781 -10.90625 2.644531 -11.171875 4.03125 -11.203125 L 5.140625 -10.203125 L 5.140625 -3.984375 C 5.140625 -2.671875 5.625 -2.015625 6.59375 -2.015625 C 7.132812 -2.015625 7.785156 -2.203125 8.546875 -2.578125 L 8.546875 -9.140625 L 7.125 -9.359375 L 6.953125 -10.453125 C 8.078125 -10.890625 9.332031 -11.140625 10.71875 -11.203125 L 11.828125 -10.203125 L 11.828125 -2.578125 C 11.828125 -2.171875 12.019531 -1.96875 12.40625 -1.96875 L 13.53125 -2.109375 Z M 13.734375 -1.09375 "/></g></g></g><g clip-path="url(#afcb8b7177)"><path stroke-linecap="butt" transform="matrix(1.234551, 0, 0, 1.234551, -6.236123, -0.611942)" fill="none" stroke-linejoin="miter" d="M 24.656138 12.247174 C 24.59602 13.294493 24.444143 14.544315 24.194179 15.999805 L 15.287217 16.018789 L 15.306202 15.999805 L 14.58795 14.781623 L 21.330662 5.593056 L 17.343887 5.843021 L 16.790168 8.099029 L 15.287217 8.099029 C 15.157489 7.393433 15.091043 6.53596 15.091043 5.523446 L 15.144832 4.235655 L 23.94105 4.235655 L 24.532738 5.431687 L 17.932411 14.427243 L 22.22294 14.319664 L 23.048772 12.01303 Z M 34.917337 14.607597 C 35.391953 14.737326 35.822272 14.911352 36.205129 15.123347 L 36.132355 15.999805 L 31.395686 15.999805 L 31.338732 15.392296 L 32.325934 14.942993 L 32.325934 10.832818 C 32.325934 9.665262 31.936749 9.079902 31.158378 9.079902 C 30.766029 9.079902 30.218638 9.282405 29.519371 9.687411 L 29.519371 14.642403 C 29.933869 14.772131 30.297741 14.9335 30.610988 15.123347 L 30.535049 15.999805 L 25.655996 15.999805 L 25.602206 15.392296 C 25.934438 15.20245 26.374248 15.009439 26.924803 14.822757 L 26.924803 4.466634 L 25.586386 4.32425 L 25.459821 3.466777 C 26.481828 3.074427 27.544968 2.865596 28.639749 2.840283 L 29.519371 3.628146 L 29.519371 8.833102 C 30.696419 7.959809 31.693112 7.42191 32.503124 7.222572 C 33.050514 7.257377 33.5631 7.440895 34.04088 7.77629 C 34.51866 8.111686 34.790773 8.53884 34.860383 9.064082 L 34.917337 10.07976 Z M 45.979056 15.139167 L 43.80215 16.287738 C 43.514216 16.275082 43.213626 16.145353 42.900379 15.904881 C 42.593461 15.658081 42.349825 15.357491 42.172635 14.999947 L 40.220381 16.230784 L 39.666662 16.26559 C 38.916769 16.26559 38.296604 16.047266 37.806167 15.607455 C 37.322059 15.16448 37.078423 14.63291 37.078423 14.012745 C 37.078423 13.155272 37.543546 12.474989 38.47063 11.97506 L 41.884701 11.886465 L 41.884701 10.29492 C 41.884701 9.342523 41.60626 8.735015 41.046213 8.475558 C 40.495658 8.510363 40.049519 8.586302 39.707795 8.706538 L 39.385057 10.636643 L 37.882106 10.687269 C 37.619485 10.032299 37.489756 9.310882 37.489756 8.526184 L 37.505577 8.16864 C 38.160547 7.88387 38.94841 7.630741 39.862837 7.409254 C 40.783592 7.187766 41.48286 7.077023 41.957476 7.077023 C 42.397286 7.077023 42.827605 7.197259 43.251595 7.434567 C 43.675586 7.675039 44.020473 7.985121 44.27993 8.364814 C 44.412823 8.59263 44.482433 9.045097 44.495089 9.722216 L 44.495089 14.012745 C 44.495089 14.300679 44.643802 14.446228 44.944393 14.446228 L 45.817686 14.335484 Z M 40.043191 14.677208 C 40.520971 14.664551 41.134808 14.515838 41.884701 14.227905 L 41.884701 12.943277 L 41.438562 12.921128 C 40.25835 12.921128 39.666662 13.247031 39.666662 13.892509 C 39.666662 14.212084 39.793226 14.474705 40.043191 14.677208 Z M 55.794116 14.607597 C 56.379475 14.784787 56.803466 14.955649 57.066087 15.123347 L 56.990148 15.999805 L 52.272465 15.999805 L 52.218675 15.392296 L 53.202712 14.942993 L 53.202712 10.832818 C 53.202712 9.665262 52.813527 9.079902 52.041485 9.079902 C 51.671284 9.079902 51.111237 9.288734 50.361344 9.706396 L 50.361344 14.642403 C 50.775842 14.772131 51.139714 14.9335 51.452961 15.123347 L 51.377022 15.999805 L 46.51379 15.999805 L 46.463164 15.392296 C 46.782739 15.211942 47.216221 15.022095 47.766776 14.822757 L 47.766776 8.810953 L 46.428359 8.652748 L 46.301795 7.792111 C 47.323801 7.399762 48.386941 7.190931 49.481722 7.168782 L 50.361344 8.026255 L 50.361344 8.848923 C 51.563705 7.966137 52.569891 7.42191 53.379902 7.222572 C 53.927293 7.257377 54.439878 7.440895 54.917658 7.77629 C 55.395438 8.111686 55.670716 8.53884 55.74349 9.064082 L 55.794116 10.07976 Z M 67.213378 8.383799 L 66.821029 8.364814 C 66.343249 8.364814 65.909766 8.440753 65.517417 8.595794 C 65.852812 9.060918 66.017346 9.582995 66.017346 10.155699 C 66.017346 11.060633 65.62816 11.79787 64.843462 12.373738 C 64.065091 12.943277 63.096875 13.228047 61.941976 13.228047 L 61.334467 13.193242 L 60.40422 13.996925 C 61.343959 14.006417 62.388115 14.117161 63.530357 14.329156 C 64.675764 14.537987 65.685114 14.784787 66.555244 15.069557 C 66.67548 15.417609 66.735598 15.768825 66.735598 16.126369 C 66.735598 17.259119 66.1977 18.239992 65.125067 19.072153 C 64.052435 19.907477 62.796285 20.325139 61.353452 20.325139 C 60.35043 20.325139 59.486629 20.100487 58.758884 19.654348 C 58.031139 19.208209 57.657775 18.540583 57.632462 17.64514 L 59.597372 15.87324 L 58.47095 15.80363 L 58.11657 14.661387 C 58.736735 13.97794 59.404362 13.408401 60.116286 12.943277 C 59.439167 12.705969 58.901269 12.338933 58.505755 11.845332 C 58.113406 11.348567 57.917232 10.791684 57.917232 10.171519 C 57.917232 9.279241 58.306417 8.532512 59.087951 7.93766 C 59.869486 7.339644 60.837702 7.042218 61.992601 7.042218 C 62.960818 7.042218 63.789814 7.251049 64.482754 7.665547 C 64.887759 6.700494 65.650309 6.172088 66.770403 6.077165 Z M 62.783628 11.940255 C 63.236095 11.608024 63.460747 11.066962 63.460747 10.31074 C 63.460747 9.776006 63.299378 9.307718 62.976639 8.902712 C 62.657064 8.497707 62.24573 8.295204 61.745801 8.295204 C 61.495837 8.295204 61.233216 8.355322 60.961102 8.475558 C 60.625707 8.804625 60.458009 9.348852 60.458009 10.098745 C 60.458009 10.671448 60.600394 11.1429 60.885164 11.513101 C 61.173098 11.883301 61.568611 12.06682 62.06854 12.06682 C 62.258386 12.06682 62.495694 12.025686 62.783628 11.940255 Z M 61.710996 18.322259 C 62.35331 18.322259 62.986131 18.202023 63.606296 17.964715 C 64.223297 17.727407 64.675764 17.395176 64.963698 16.964857 C 63.891066 16.51239 62.460889 16.186487 60.670005 15.983984 C 60.027691 16.471257 59.708116 16.907903 59.708116 17.287596 C 59.708116 17.610335 59.894798 17.863464 60.271327 18.046982 C 60.644692 18.2305 61.125636 18.322259 61.710996 18.322259 Z M 74.740789 11.744081 L 70.184475 11.690291 C 70.228772 12.573077 70.504049 13.259688 71.003978 13.74696 C 71.503907 14.237397 72.143057 14.481033 72.915099 14.481033 C 73.560577 14.481033 74.326291 14.265874 75.209077 13.835555 L 75.582441 14.781623 L 72.775878 16.230784 L 72.203175 16.26559 C 70.893234 16.26559 69.81111 15.854256 68.966293 15.02526 C 68.118313 14.196264 67.694322 13.14578 67.694322 11.870645 C 67.694322 10.535392 68.124641 9.412134 68.982114 8.500871 C 69.842751 7.586444 70.883742 7.130813 72.111416 7.130813 C 73.187212 7.130813 74.066834 7.463044 74.750281 8.124342 C 75.436892 8.785641 75.778616 9.646278 75.778616 10.709418 Z M 71.488087 8.491379 C 70.867922 8.848923 70.469244 9.503893 70.28889 10.456289 L 73.383387 10.29492 C 73.297956 9.782334 73.079632 9.35518 72.728417 9.010292 C 72.380365 8.665404 71.965867 8.491379 71.488087 8.491379 Z M 80.800054 14.265874 C 81.132285 14.265874 81.635378 14.189935 82.29984 14.03173 L 82.496015 14.908188 L 79.746406 16.287738 C 79.230657 16.309887 78.74022 16.139025 78.275096 15.768825 C 77.813137 15.398624 77.575829 14.980962 77.563172 14.515838 L 77.563172 9.348852 L 76.310186 9.364672 L 76.240575 8.434425 C 76.693043 8.11485 77.177151 7.83008 77.689736 7.580116 L 78.582015 5.251333 L 79.800196 5.251333 L 80.10395 7.580116 L 82.552969 7.580116 L 82.587774 8.348994 L 81.711316 9.383657 L 80.15774 9.383657 L 80.15774 13.443206 C 80.15774 13.753289 80.205202 13.968448 80.296961 14.088684 C 80.391884 14.20892 80.559582 14.265874 80.800054 14.265874 Z M 85.910087 9.260257 C 85.910087 9.510221 86.001846 9.731709 86.185364 9.924719 C 86.372046 10.111401 86.935257 10.437304 87.874997 10.8961 C 88.817901 11.354895 89.457051 11.791542 89.792446 12.212368 C 90.127841 12.626866 90.295539 13.101483 90.295539 13.639381 C 90.295539 14.4399 89.9728 15.091706 89.33365 15.597963 C 88.697665 16.10422 87.859176 16.357349 86.824513 16.357349 C 85.656958 16.357349 84.476746 16.040938 83.283878 15.411281 L 84.17932 13.319806 C 85.277265 14.129817 86.384703 14.683536 87.504796 14.984126 C 87.754761 14.768967 87.881325 14.496854 87.881325 14.174115 C 87.881325 13.902002 87.773746 13.664694 87.558586 13.465355 C 87.343427 13.259688 86.780216 12.936949 85.875281 12.500302 C 84.970347 12.057327 84.359674 11.636501 84.043263 11.237823 C 83.726853 10.835982 83.568647 10.374022 83.568647 9.84878 C 83.568647 9.038769 83.919863 8.380635 84.625459 7.880706 C 85.327891 7.380777 86.229661 7.130813 87.324442 7.130813 C 88.349613 7.130813 89.219742 7.320659 89.934831 7.700352 L 89.953815 8.203445 C 89.953815 8.896384 89.852564 9.541862 89.646897 10.136714 L 88.273674 10.136714 L 87.840192 8.560989 C 87.390889 8.440753 86.973226 8.393291 86.593534 8.418604 C 86.137902 8.573645 85.910087 8.855251 85.910087 9.260257 Z M 101.733786 15.139167 L 99.531567 16.287738 C 99.234141 16.275082 98.920895 16.120041 98.585499 15.828943 C 98.253268 15.537845 98.009632 15.196121 97.851427 14.803772 C 96.791451 15.544173 95.772608 16.037774 94.794899 16.287738 C 94.427863 16.262425 94.035513 16.135861 93.621015 15.91121 C 93.212846 15.686558 92.880614 15.385968 92.63065 15.018931 C 92.466116 14.768967 92.377521 14.212084 92.364865 13.354611 L 92.364865 8.810953 L 91.023284 8.652748 L 90.896719 7.792111 C 91.92189 7.399762 92.981866 7.190931 94.079811 7.168782 L 94.956269 7.95348 L 94.956269 12.851518 C 94.956269 13.889345 95.339126 14.408259 96.101675 14.408259 C 96.52883 14.408259 97.041415 14.259546 97.639431 13.96212 L 97.639431 8.791969 L 96.513009 8.614779 L 96.386445 7.757306 C 97.269231 7.412418 98.259596 7.216243 99.354377 7.168782 L 100.230835 7.95348 L 100.230835 13.96212 C 100.230835 14.284859 100.379548 14.446228 100.680138 14.446228 L 101.572416 14.335484 Z M 101.733786 15.139167 " stroke="#000000" stroke-width="2.795125" stroke-opacity="1" stroke-miterlimit="4"/></g><g fill="#ffffff" fill-opacity="1"><g transform="translate(11.047584, 19.140866)"><g><path d="M 13.15625 -4.640625 C 13.082031 -3.335938 12.890625 -1.789062 12.578125 0 L 1.59375 0.015625 L 1.609375 0 L 0.734375 -1.5 L 9.046875 -12.84375 L 4.125 -12.546875 L 3.4375 -9.765625 L 1.59375 -9.765625 C 1.425781 -10.628906 1.34375 -11.6875 1.34375 -12.9375 L 1.40625 -14.53125 L 12.28125 -14.53125 L 13 -13.046875 L 4.859375 -1.9375 L 10.15625 -2.078125 L 11.171875 -4.921875 Z M 13.15625 -4.640625 "/></g></g></g><g fill="#ffffff" fill-opacity="1"><g transform="translate(24.99426, 19.140866)"><g><path d="M 11.875 -1.71875 C 12.46875 -1.5625 13 -1.347656 13.46875 -1.078125 L 13.375 0 L 7.53125 0 L 7.46875 -0.75 L 8.671875 -1.296875 L 8.671875 -6.375 C 8.671875 -7.820312 8.191406 -8.546875 7.234375 -8.546875 C 6.753906 -8.546875 6.078125 -8.296875 5.203125 -7.796875 L 5.203125 -1.671875 C 5.722656 -1.515625 6.175781 -1.316406 6.5625 -1.078125 L 6.46875 0 L 0.4375 0 L 0.375 -0.75 C 0.789062 -0.988281 1.335938 -1.222656 2.015625 -1.453125 L 2.015625 -14.234375 L 0.359375 -14.421875 L 0.203125 -15.484375 C 1.460938 -15.960938 2.769531 -16.21875 4.125 -16.25 L 5.203125 -15.28125 L 5.203125 -8.859375 C 6.660156 -9.929688 7.890625 -10.59375 8.890625 -10.84375 C 9.566406 -10.800781 10.195312 -10.570312 10.78125 -10.15625 C 11.375 -9.738281 11.71875 -9.207031 11.8125 -8.5625 L 11.875 -7.3125 Z M 11.875 -1.71875 "/></g></g></g><g fill="#ffffff" fill-opacity="1"><g transform="translate(38.720271, 19.140866)"><g><path d="M 11.8125 -1.0625 L 9.125 0.359375 C 8.769531 0.335938 8.398438 0.175781 8.015625 -0.125 C 7.628906 -0.425781 7.328125 -0.796875 7.109375 -1.234375 L 4.703125 0.28125 L 4.015625 0.328125 C 3.085938 0.328125 2.320312 0.0546875 1.71875 -0.484375 C 1.113281 -1.023438 0.8125 -1.679688 0.8125 -2.453125 C 0.8125 -3.515625 1.382812 -4.351562 2.53125 -4.96875 L 6.75 -5.078125 L 6.75 -7.046875 C 6.75 -8.222656 6.40625 -8.972656 5.71875 -9.296875 C 5.039062 -9.253906 4.488281 -9.160156 4.0625 -9.015625 L 3.671875 -6.625 L 1.8125 -6.5625 C 1.488281 -7.363281 1.328125 -8.253906 1.328125 -9.234375 L 1.34375 -9.671875 C 2.15625 -10.023438 3.128906 -10.335938 4.265625 -10.609375 C 5.398438 -10.878906 6.257812 -11.015625 6.84375 -11.015625 C 7.382812 -11.015625 7.914062 -10.867188 8.4375 -10.578125 C 8.96875 -10.285156 9.394531 -9.898438 9.71875 -9.421875 C 9.875 -9.148438 9.960938 -8.59375 9.984375 -7.75 L 9.984375 -2.453125 C 9.984375 -2.097656 10.164062 -1.921875 10.53125 -1.921875 L 11.609375 -2.046875 Z M 4.484375 -1.640625 C 5.066406 -1.648438 5.820312 -1.832031 6.75 -2.1875 L 6.75 -3.78125 L 6.203125 -3.796875 C 4.742188 -3.796875 4.015625 -3.398438 4.015625 -2.609375 C 4.015625 -2.210938 4.171875 -1.890625 4.484375 -1.640625 Z M 4.484375 -1.640625 "/></g></g></g><g fill="#ffffff" fill-opacity="1"><g transform="translate(50.72502, 19.140866)"><g><path d="M 11.921875 -1.71875 C 12.640625 -1.5 13.160156 -1.285156 13.484375 -1.078125 L 13.40625 0 L 7.578125 0 L 7.5 -0.75 L 8.71875 -1.296875 L 8.71875 -6.375 C 8.71875 -7.820312 8.238281 -8.546875 7.28125 -8.546875 C 6.820312 -8.546875 6.128906 -8.285156 5.203125 -7.765625 L 5.203125 -1.671875 C 5.722656 -1.515625 6.175781 -1.316406 6.5625 -1.078125 L 6.46875 0 L 0.46875 0 L 0.390625 -0.75 C 0.796875 -0.96875 1.335938 -1.203125 2.015625 -1.453125 L 2.015625 -8.875 L 0.359375 -9.078125 L 0.203125 -10.140625 C 1.460938 -10.617188 2.769531 -10.875 4.125 -10.90625 L 5.203125 -9.84375 L 5.203125 -8.828125 C 6.691406 -9.921875 7.9375 -10.59375 8.9375 -10.84375 C 9.613281 -10.800781 10.242188 -10.570312 10.828125 -10.15625 C 11.421875 -9.738281 11.765625 -9.207031 11.859375 -8.5625 L 11.921875 -7.3125 Z M 11.921875 -1.71875 "/></g></g></g><g fill="#ffffff" fill-opacity="1"><g transform="translate(64.473089, 19.140866)"><g><path d="M 12.28125 -9.40625 L 11.796875 -9.421875 C 11.203125 -9.421875 10.660156 -9.328125 10.171875 -9.140625 C 10.585938 -8.566406 10.796875 -7.925781 10.796875 -7.21875 C 10.796875 -6.101562 10.3125 -5.191406 9.34375 -4.484375 C 8.382812 -3.773438 7.191406 -3.421875 5.765625 -3.421875 L 5.015625 -3.46875 L 3.859375 -2.46875 C 5.023438 -2.457031 6.3125 -2.320312 7.71875 -2.0625 C 9.132812 -1.800781 10.378906 -1.492188 11.453125 -1.140625 C 11.597656 -0.710938 11.671875 -0.28125 11.671875 0.15625 C 11.671875 1.550781 11.007812 2.765625 9.6875 3.796875 C 8.363281 4.828125 6.8125 5.34375 5.03125 5.34375 C 3.789062 5.34375 2.722656 5.066406 1.828125 4.515625 C 0.929688 3.960938 0.46875 3.132812 0.4375 2.03125 L 2.875 -0.15625 L 1.484375 -0.25 L 1.03125 -1.65625 C 1.800781 -2.5 2.628906 -3.207031 3.515625 -3.78125 C 2.671875 -4.070312 2.003906 -4.519531 1.515625 -5.125 C 1.035156 -5.738281 0.796875 -6.429688 0.796875 -7.203125 C 0.796875 -8.304688 1.273438 -9.222656 2.234375 -9.953125 C 3.203125 -10.691406 4.398438 -11.0625 5.828125 -11.0625 C 7.015625 -11.0625 8.035156 -10.800781 8.890625 -10.28125 C 9.390625 -11.476562 10.332031 -12.132812 11.71875 -12.25 Z M 6.796875 -5.015625 C 7.359375 -5.421875 7.640625 -6.085938 7.640625 -7.015625 C 7.640625 -7.679688 7.441406 -8.265625 7.046875 -8.765625 C 6.648438 -9.265625 6.140625 -9.515625 5.515625 -9.515625 C 5.210938 -9.515625 4.890625 -9.441406 4.546875 -9.296875 C 4.140625 -8.878906 3.9375 -8.207031 3.9375 -7.28125 C 3.9375 -6.570312 4.109375 -5.988281 4.453125 -5.53125 C 4.804688 -5.082031 5.296875 -4.859375 5.921875 -4.859375 C 6.148438 -4.859375 6.441406 -4.910156 6.796875 -5.015625 Z M 5.46875 2.875 C 6.269531 2.875 7.050781 2.722656 7.8125 2.421875 C 8.582031 2.128906 9.144531 1.71875 9.5 1.1875 C 8.164062 0.632812 6.394531 0.234375 4.1875 -0.015625 C 3.394531 0.585938 3 1.125 3 1.59375 C 3 1.988281 3.226562 2.300781 3.6875 2.53125 C 4.15625 2.757812 4.75 2.875 5.46875 2.875 Z M 5.46875 2.875 "/></g></g></g><g fill="#ffffff" fill-opacity="1"><g transform="translate(77.029521, 19.140866)"><g><path d="M 9.015625 -5.25 L 3.375 -5.328125 C 3.4375 -4.234375 3.773438 -3.382812 4.390625 -2.78125 C 5.015625 -2.175781 5.800781 -1.875 6.75 -1.875 C 7.550781 -1.875 8.492188 -2.140625 9.578125 -2.671875 L 10.046875 -1.5 L 6.578125 0.28125 L 5.875 0.328125 C 4.25 0.328125 2.914062 -0.179688 1.875 -1.203125 C 0.832031 -2.222656 0.3125 -3.519531 0.3125 -5.09375 C 0.3125 -6.75 0.835938 -8.140625 1.890625 -9.265625 C 2.953125 -10.390625 4.242188 -10.953125 5.765625 -10.953125 C 7.085938 -10.953125 8.171875 -10.539062 9.015625 -9.71875 C 9.859375 -8.90625 10.28125 -7.84375 10.28125 -6.53125 Z M 4.984375 -9.265625 C 4.222656 -8.828125 3.734375 -8.019531 3.515625 -6.84375 L 7.328125 -7.046875 C 7.222656 -7.679688 6.953125 -8.207031 6.515625 -8.625 C 6.085938 -9.050781 5.578125 -9.265625 4.984375 -9.265625 Z M 4.984375 -9.265625 "/></g></g></g><g fill="#ffffff" fill-opacity="1"><g transform="translate(87.710203, 19.140866)"><g><path d="M 5.8125 -2.140625 C 6.21875 -2.140625 6.832031 -2.234375 7.65625 -2.421875 L 7.90625 -1.34375 L 4.5 0.359375 C 3.863281 0.378906 3.257812 0.164062 2.6875 -0.28125 C 2.113281 -0.738281 1.820312 -1.253906 1.8125 -1.828125 L 1.8125 -8.21875 L 0.265625 -8.1875 L 0.171875 -9.34375 C 0.734375 -9.738281 1.332031 -10.09375 1.96875 -10.40625 L 3.0625 -13.265625 L 4.5625 -13.265625 L 4.953125 -10.40625 L 7.96875 -10.40625 L 8.015625 -9.453125 L 6.9375 -8.171875 L 5.015625 -8.171875 L 5.015625 -3.15625 C 5.015625 -2.769531 5.070312 -2.503906 5.1875 -2.359375 C 5.300781 -2.210938 5.507812 -2.140625 5.8125 -2.140625 Z M 5.8125 -2.140625 "/></g></g></g><g fill="#ffffff" fill-opacity="1"><g transform="translate(96.14, 19.140866)"><g><path d="M 3.6875 -8.328125 C 3.6875 -8.015625 3.800781 -7.738281 4.03125 -7.5 C 4.257812 -7.269531 4.953125 -6.867188 6.109375 -6.296875 C 7.273438 -5.734375 8.0625 -5.191406 8.46875 -4.671875 C 8.882812 -4.160156 9.09375 -3.578125 9.09375 -2.921875 C 9.09375 -1.929688 8.695312 -1.125 7.90625 -0.5 C 7.125 0.125 6.09375 0.4375 4.8125 0.4375 C 3.375 0.4375 1.914062 0.046875 0.4375 -0.734375 L 1.546875 -3.3125 C 2.898438 -2.3125 4.269531 -1.628906 5.65625 -1.265625 C 5.957031 -1.523438 6.109375 -1.851562 6.109375 -2.25 C 6.109375 -2.59375 5.976562 -2.890625 5.71875 -3.140625 C 5.457031 -3.390625 4.765625 -3.785156 3.640625 -4.328125 C 2.523438 -4.867188 1.769531 -5.382812 1.375 -5.875 C 0.988281 -6.375 0.796875 -6.945312 0.796875 -7.59375 C 0.796875 -8.59375 1.226562 -9.398438 2.09375 -10.015625 C 2.96875 -10.640625 4.082031 -10.953125 5.4375 -10.953125 C 6.695312 -10.953125 7.769531 -10.71875 8.65625 -10.25 L 8.671875 -9.625 C 8.671875 -8.769531 8.546875 -7.972656 8.296875 -7.234375 L 6.59375 -7.234375 L 6.078125 -9.1875 C 5.515625 -9.332031 5 -9.390625 4.53125 -9.359375 C 3.96875 -9.171875 3.6875 -8.828125 3.6875 -8.328125 Z M 3.6875 -8.328125 "/></g></g></g><g fill="#ffffff" fill-opacity="1"><g transform="translate(105.982119, 19.140866)"><g><path d="M 13.375 -1.0625 L 10.65625 0.359375 C 10.289062 0.335938 9.898438 0.148438 9.484375 -0.203125 C 9.078125 -0.566406 8.78125 -0.992188 8.59375 -1.484375 C 7.28125 -0.566406 6.019531 0.046875 4.8125 0.359375 C 4.351562 0.328125 3.867188 0.171875 3.359375 -0.109375 C 2.859375 -0.390625 2.453125 -0.757812 2.140625 -1.21875 C 1.929688 -1.519531 1.820312 -2.203125 1.8125 -3.265625 L 1.8125 -8.875 L 0.15625 -9.078125 L 0 -10.140625 C 1.269531 -10.617188 2.582031 -10.875 3.9375 -10.90625 L 5.015625 -9.9375 L 5.015625 -3.890625 C 5.015625 -2.609375 5.484375 -1.96875 6.421875 -1.96875 C 6.953125 -1.96875 7.585938 -2.148438 8.328125 -2.515625 L 8.328125 -8.890625 L 6.9375 -9.125 L 6.78125 -10.171875 C 7.863281 -10.597656 9.082031 -10.84375 10.4375 -10.90625 L 11.53125 -9.9375 L 11.53125 -2.515625 C 11.53125 -2.117188 11.710938 -1.921875 12.078125 -1.921875 L 13.1875 -2.046875 Z M 13.375 -1.0625 "/></g></g></g></svg>